<svg xmlns="http://www.w3.org/2000/svg" width="500" height="500" version="1.0" viewBox="0 0 375 375"><path fill="#6598cb" d="M68.957 235.996c.445-2.665 1.562-4.61 3.343-5.829q2.673-1.841 6-1.843c-.886 3.336-.386 6.89 1.5 10.672q2.842 5.672 8.172 10.343 12.012 10.347 28.36 14.688c10.906 2.886 22.304 4.328 34.203 4.328q17.84.002 34.187-3.172 16.36-3.169 28.703-8.172 12.341-4.999 17.844-10.672c3.664-3.781 4.219-7.281 1.656-10.5q-3.83-4.84-20.5-7.86-30.703-5.324-53.562-10.327-22.847-5.016-37.86-12.516-15.016-7.512-21.859-19.687-6.83-12.172-5.5-31.86.996-17.341 11.344-31.015 10.343-13.688 26.516-23.532 16.183-9.842 35.203-15.015 19.03-5.17 37.547-5.328 18.514-.172 33.859 5.172 15.341 5.33 24.187 16.671 8.841 11.346 7.844 29.032-1 18.017-13.187 31.859-12.174 13.846-29.516 17.516-15.69 3.327-25.703-1.172-10.002-4.5-9.328-15.844.656-7.67 4.828-11.672l4.172-4.015s1.164.617 3.5 1.843q3.497 1.83 11.172 2.828 7.687 1.003 19.36-1.328 7.342-1.668 11.843-6.343 4.499-4.672 4.844-10.344.325-8.999-8.688-16-9-7.014-25.86-9.344-16.844-2.342-40.187 2.984c-15.125 3.344-28.086 8.965-38.875 16.86-10.781 7.898-16.508 17.734-17.172 29.515q-.672 12.017 7.672 19.188c5.563 4.781 13.008 8.562 22.344 11.344 9.344 2.78 19.57 5.12 30.687 7.015a2164 2164 0 0 1 32.86 5.828q16.184 3 28.531 8.016 11.344 4.33 15.844 11.344 4.513 7.002 4.515 17.672 0 14.688-9.515 26.03-9.504 11.343-25.36 19.017-15.844 7.668-35.187 11.171-19.347 3.5-39.203 2.657-19.846-.832-37.531-6.672-17.69-5.83-30.032-16.828-9.328-8.684-14.343-18.516c-3.336-6.562-4.555-12.625-3.672-18.187m49.718 101.078q0-10.33 7-17.172 7.015-6.844 16.344-6.844 9.686 0 15.188 6c3.664 4.008 5.5 9.016 5.5 15.016q-.001 8.341-6.5 15.687-6.502 7.343-17.516 7.344-9.018 0-14.516-5.672-5.5-5.673-5.5-14.36m49.704 0q-.001-10.33 7-17.172 7.013-6.844 16.359-6.844 9.669 0 15.172 6c3.676 4.008 5.515 9.016 5.515 15.016q0 8.67-6.515 15.843c-4.336 4.79-10.172 7.188-17.516 7.188q-9.001 0-14.515-5.672-5.501-5.673-5.5-14.36m0 0"/><path fill="#6598cb" d="M293.148 64.183q-.001-10.343 7-17.187 7.013-6.844 16.359-6.844c6.445 0 11.504 2.008 15.172 6.015q5.514 6 5.515 15 0 8.689-6.515 15.86-6.503 7.172-17.5 7.172-9.018 0-14.531-5.672-5.501-5.672-5.5-14.344m-78.391 255.219q-1.343-3.673 1.656-3.672 16.359 0 27.703-9.844 11.342-9.844 19.016-27.36 7.67-17.514 12.844-40.53 5.168-23.014 9-49.532a2251 2251 0 0 0 7.172-54.234q2.015-15.668 1.171-22.172-.83-6.516-.828-6.516l4-1.5q3.997-1.5 13.344-1.5 19.343.001 23.516 7.672 4.171 7.675 1.172 25.36l-6 34.03q-5.016 28.36-11.86 55.22-6.83 26.846-16.672 48.53-9.844 21.687-24.36 35.204-14.502 13.512-35.187 15.516-5.342.327-10.671.156a234 234 0 0 1-10.016-.5q-3.997-.33-5-4.328m0 0"/><path fill="none" stroke="#004b96" stroke-width="12.51103695" d="M54.21 221.215q.652-3.99 3.34-5.781 2.687-1.875 6.028-1.875c-.926 3.367-.433 6.953 1.465 10.754q2.853 5.62 8.227 10.261 11.971 10.343 28.261 14.742 16.373 4.318 34.211 4.317 17.919 0 34.207-3.176 16.372-3.176 28.672-8.144 12.381-5.052 17.836-10.672 5.543-5.7 1.711-10.504c-2.55-3.262-9.395-5.895-20.523-7.903q-30.626-5.294-53.512-10.261-22.893-5.053-37.875-12.543-14.99-7.576-21.828-19.711c-4.563-8.149-6.41-18.762-5.54-31.848q.98-17.348 11.32-31.035 10.343-13.683 26.556-23.54 16.205-9.853 35.183-14.983 19.06-5.216 37.551-5.375c12.324-.11 23.594 1.628 33.8 5.21q15.393 5.297 24.192 16.7 8.877 11.319 7.899 28.996c-.653 12-5.047 22.613-13.196 31.847q-12.135 13.845-29.484 17.512-15.72 3.335-25.738-1.14-10.02-4.564-9.285-15.883c.433-5.106 2.039-8.989 4.804-11.649l4.156-3.992 3.5 1.875q3.503 1.791 11.16 2.77c5.16.652 11.622.214 19.387-1.305q7.332-1.71 11.809-6.352c3.043-3.152 4.672-6.597 4.887-10.343.218-6.028-2.688-11.38-8.715-16.047q-8.958-7.007-25.82-9.285-16.86-2.363-40.235 2.933-22.646 5.046-38.851 16.942c-10.81 7.87-16.536 17.699-17.188 29.484q-.652 11.97 7.656 19.14 8.39 7.167 22.399 11.403 14.011 4.155 30.625 7.004a1704 1704 0 0 1 32.906 5.785q16.209 3.012 28.508 7.98 11.404 4.401 15.883 11.403 4.481 7.007 4.48 17.676 0 14.66-9.531 26.062-9.447 11.321-25.328 18.98-15.804 7.652-35.188 11.157-19.389 3.503-39.258 2.605-19.791-.816-37.468-6.676-17.674-5.783-30.055-16.78-9.286-8.715-14.336-18.49-4.97-9.855-3.664-18.245Zm49.685 101.082c0-6.844 2.335-12.543 7.003-17.106q7.008-6.843 16.372-6.843c6.464 0 11.511 1.984 15.152 5.949q5.538 6.025 5.539 15.066.001 8.308-6.52 15.637-6.514 7.334-17.511 7.332-8.96.001-14.496-5.7-5.539-5.624-5.54-14.335Zm49.765 0c0-6.844 2.336-12.543 7.004-17.106q7.007-6.843 16.293-6.843 9.693 0 15.148 5.949 5.539 6.025 5.54 15.066 0 8.636-6.516 15.801-6.436 7.167-17.512 7.168-8.96.001-14.5-5.7-5.456-5.624-5.457-14.335Zm124.723-272.86q0-10.343 7.008-17.183 7.002-6.844 16.37-6.844 9.693-.001 15.15 6.028 5.536 6.028 5.538 14.988 0 8.711-6.515 15.883c-4.344 4.777-10.184 7.168-17.512 7.168q-9.041-.001-14.578-5.704-5.46-5.7-5.461-14.335ZM200.03 304.622q-1.39-3.666 1.63-3.664 16.37 0 27.69-9.855c7.547-6.516 13.876-15.614 18.977-27.286q7.74-17.512 12.871-40.562 5.214-23.05 9.04-49.524a2351 2351 0 0 0 7.167-54.246q2.04-15.637 1.14-22.152l-.812-6.516s1.329-.492 3.989-1.468c2.664-1.032 7.113-1.547 13.359-1.547q19.384-.002 23.54 7.656c2.769 5.106 3.148 13.574 1.14 25.414l-6.028 33.965q-4.969 28.34-11.812 55.223-6.84 26.876-16.695 48.543c-6.57 14.445-14.688 26.171-24.356 35.187-9.664 9.012-21.39 14.2-35.183 15.555q-5.297.328-10.59.164c-3.582-.11-6.95-.27-10.098-.488q-3.996-.328-4.969-4.399Zm0 0"/></svg>